G04 #@! TF.FileFunction,Copper,L1,Top,Signal*
%FSLAX46Y46*%
G04 Gerber Fmt 4.6, Leading zero omitted, Abs format (unit mm)*
G04 Created by KiCad (PCBNEW 4.0.7) date Monday, January 25, 2021 'AMt' 11:59:33 AM*
%MOMM*%
%LPD*%
G01*
G04 APERTURE LIST*
%ADD10C,0.100000*%
%ADD11R,1.200000X0.900000*%
%ADD12R,0.900000X1.200000*%
%ADD13R,0.800000X0.900000*%
%ADD14R,1.000000X1.250000*%
%ADD15R,1.250000X1.000000*%
%ADD16R,1.300000X0.700000*%
%ADD17R,0.700000X1.300000*%
%ADD18R,1.000000X1.600000*%
%ADD19R,2.000000X1.500000*%
%ADD20R,1.500000X2.000000*%
%ADD21R,4.000000X3.500000*%
%ADD22C,2.500000*%
%ADD23R,1.300000X0.600000*%
%ADD24R,0.600000X1.200000*%
%ADD25C,1.200000*%
%ADD26C,0.250000*%
%ADD27C,0.500000*%
%ADD28C,2.000000*%
%ADD29C,0.254000*%
G04 APERTURE END LIST*
D10*
D11*
X87400000Y-120550000D03*
X87400000Y-117250000D03*
D12*
X80350000Y-120250000D03*
X83650000Y-120250000D03*
X80350000Y-127750000D03*
X83650000Y-127750000D03*
X82700000Y-78900000D03*
X86000000Y-78900000D03*
D13*
X76800000Y-91000000D03*
X78700000Y-91000000D03*
X77750000Y-89000000D03*
X80900000Y-91000000D03*
X82800000Y-91000000D03*
X81850000Y-89000000D03*
X82950000Y-76500000D03*
X84850000Y-76500000D03*
X83900000Y-74500000D03*
X71650000Y-76450000D03*
X73550000Y-76450000D03*
X72600000Y-74450000D03*
X78650000Y-76450000D03*
X80550000Y-76450000D03*
X79600000Y-74450000D03*
X71650000Y-91000000D03*
X73550000Y-91000000D03*
X72600000Y-89000000D03*
X71650000Y-87200000D03*
X73550000Y-87200000D03*
X72600000Y-85200000D03*
D14*
X107300000Y-91700000D03*
X105300000Y-91700000D03*
D15*
X83750000Y-87200000D03*
X83750000Y-85200000D03*
X79150000Y-83550000D03*
X79150000Y-81550000D03*
D16*
X91900000Y-117350000D03*
X91900000Y-119250000D03*
X87500000Y-124650000D03*
X87500000Y-122750000D03*
D17*
X83700000Y-117750000D03*
X81800000Y-117750000D03*
D16*
X78250000Y-124450000D03*
X78250000Y-122550000D03*
X75500000Y-122550000D03*
X75500000Y-124450000D03*
X72750000Y-124450000D03*
X72750000Y-122550000D03*
D17*
X90850000Y-86700000D03*
X92750000Y-86700000D03*
X94450000Y-89200000D03*
X96350000Y-89200000D03*
X92750000Y-91700000D03*
X90850000Y-91700000D03*
X99950000Y-94100000D03*
X98050000Y-94100000D03*
X101650000Y-91700000D03*
X103550000Y-91700000D03*
X96650000Y-77800000D03*
X98550000Y-77800000D03*
X96650000Y-75400000D03*
X98550000Y-75400000D03*
X101650000Y-89200000D03*
X103550000Y-89200000D03*
X102150000Y-77800000D03*
X100250000Y-77800000D03*
X103850000Y-77800000D03*
X105750000Y-77800000D03*
D16*
X86000000Y-85250000D03*
X86000000Y-87150000D03*
X79150000Y-87150000D03*
X79150000Y-85250000D03*
X81450000Y-87150000D03*
X81450000Y-85250000D03*
X83750000Y-81500000D03*
X83750000Y-83400000D03*
X81500000Y-83400000D03*
X81500000Y-81500000D03*
X86000000Y-83350000D03*
X86000000Y-81450000D03*
D17*
X71450000Y-81450000D03*
X73350000Y-81450000D03*
X75050000Y-78850000D03*
X76950000Y-78850000D03*
X78650000Y-78850000D03*
X80550000Y-78850000D03*
X71500000Y-78850000D03*
X73400000Y-78850000D03*
D16*
X76150000Y-76350000D03*
X76150000Y-74450000D03*
X101300000Y-102850000D03*
X101300000Y-100950000D03*
D14*
X102000000Y-121600000D03*
X100000000Y-121600000D03*
D17*
X94450000Y-91700000D03*
X96350000Y-91700000D03*
D18*
X80500000Y-125250000D03*
X83500000Y-125250000D03*
D14*
X98000000Y-89200000D03*
X100000000Y-89200000D03*
X105800000Y-75300000D03*
X103800000Y-75300000D03*
X96400000Y-94100000D03*
X94400000Y-94100000D03*
X90800000Y-89200000D03*
X92800000Y-89200000D03*
D18*
X80500000Y-122750000D03*
X83500000Y-122750000D03*
D14*
X98000000Y-91700000D03*
X100000000Y-91700000D03*
D13*
X76300000Y-120500000D03*
X78200000Y-120500000D03*
X77250000Y-118500000D03*
D18*
X70750000Y-128000000D03*
X73750000Y-128000000D03*
D13*
X76550000Y-128250000D03*
X78450000Y-128250000D03*
X77500000Y-126250000D03*
D19*
X111900000Y-108500000D03*
X111900000Y-106500000D03*
X111900000Y-104500000D03*
D20*
X92700000Y-126500000D03*
X94700000Y-126500000D03*
X99600000Y-126500000D03*
X101600000Y-126500000D03*
D16*
X105700000Y-104250000D03*
X105700000Y-102350000D03*
D14*
X107300000Y-89200000D03*
X105300000Y-89200000D03*
D21*
X87000000Y-100640000D03*
X87000000Y-95560000D03*
X87000000Y-110940000D03*
X87000000Y-105860000D03*
D22*
X111700000Y-122660000D03*
X111700000Y-127740000D03*
X106620000Y-125200000D03*
D23*
X92850000Y-101295000D03*
X92850000Y-102565000D03*
X92850000Y-103835000D03*
X92850000Y-105105000D03*
X97950000Y-105105000D03*
X97950000Y-103835000D03*
X97950000Y-102565000D03*
X97950000Y-101295000D03*
D24*
X96690000Y-85350000D03*
X97960000Y-85350000D03*
X99230000Y-85350000D03*
X100500000Y-85350000D03*
X101770000Y-85350000D03*
X103040000Y-85350000D03*
X104310000Y-85350000D03*
X104310000Y-80050000D03*
X103040000Y-80050000D03*
X101770000Y-80050000D03*
X100500000Y-80050000D03*
X99230000Y-80050000D03*
X97960000Y-80050000D03*
X96690000Y-80050000D03*
D25*
X84700000Y-89200000D03*
X80800000Y-117700000D03*
X89600000Y-117600000D03*
X104100000Y-94500000D03*
X100500000Y-87100000D03*
X95200000Y-82700000D03*
X95200000Y-77800000D03*
X108200000Y-104000000D03*
X106900000Y-100600000D03*
X85800000Y-127700000D03*
X82000000Y-127750000D03*
X88400000Y-81200000D03*
X88400000Y-85400000D03*
X93200000Y-96800000D03*
X96800000Y-96800000D03*
X90800000Y-120800000D03*
X85400000Y-120800000D03*
X76000000Y-84000000D03*
X76000000Y-86800000D03*
X94200000Y-98100000D03*
X82200000Y-98100000D03*
X102400000Y-83500000D03*
X99200000Y-81500000D03*
X101400000Y-93400000D03*
X89600000Y-90700000D03*
X98000000Y-120900000D03*
X95000000Y-106000000D03*
X93000000Y-107000000D03*
X95100000Y-100800000D03*
X95100000Y-102100000D03*
D26*
X86300000Y-123700000D02*
X86200000Y-123700000D01*
X86200000Y-123700000D02*
X85800000Y-123300000D01*
X85800000Y-123300000D02*
X85800000Y-122100000D01*
X85800000Y-122100000D02*
X86200000Y-121700000D01*
X87400000Y-120550000D02*
X87400000Y-121200000D01*
X87400000Y-121200000D02*
X87000000Y-121600000D01*
X87000000Y-121600000D02*
X86300000Y-121600000D01*
X86300000Y-121600000D02*
X86200000Y-121700000D01*
X86300000Y-123700000D02*
X93700000Y-123700000D01*
X93700000Y-123700000D02*
X94700000Y-124700000D01*
X94700000Y-124700000D02*
X94700000Y-126500000D01*
X84700000Y-89200000D02*
X84700000Y-88450000D01*
X84700000Y-88450000D02*
X86000000Y-87150000D01*
D27*
X87200000Y-115200000D02*
X86000000Y-114000000D01*
X86000000Y-114000000D02*
X85300000Y-114000000D01*
X85300000Y-114000000D02*
X84200000Y-112900000D01*
X84200000Y-112900000D02*
X84200000Y-108900000D01*
X87000000Y-105860000D02*
X87000000Y-106100000D01*
X87000000Y-106100000D02*
X84200000Y-108900000D01*
X87100000Y-115100000D02*
X87200000Y-115200000D01*
X87200000Y-115200000D02*
X89600000Y-117600000D01*
X87400000Y-117250000D02*
X89250000Y-117250000D01*
X89250000Y-117250000D02*
X89600000Y-117600000D01*
X89600000Y-117600000D02*
X87750000Y-117600000D01*
X87750000Y-117600000D02*
X87400000Y-117250000D01*
D28*
X87000000Y-105860000D02*
X87000000Y-100640000D01*
D27*
X81800000Y-117750000D02*
X80850000Y-117750000D01*
X80850000Y-117750000D02*
X80800000Y-117700000D01*
X87500000Y-124650000D02*
X90850000Y-124650000D01*
X90850000Y-124650000D02*
X92700000Y-126500000D01*
D26*
X80500000Y-122750000D02*
X79850000Y-123400000D01*
X76350000Y-122550000D02*
X77200000Y-123400000D01*
X77200000Y-123400000D02*
X79850000Y-123400000D01*
X76350000Y-122550000D02*
X75500000Y-122550000D01*
D27*
X80350000Y-120250000D02*
X80350000Y-119100000D01*
X79750000Y-118500000D02*
X77250000Y-118500000D01*
X80350000Y-119100000D02*
X79750000Y-118500000D01*
X80500000Y-125250000D02*
X80500000Y-122750000D01*
X80500000Y-122750000D02*
X80500000Y-120400000D01*
X80500000Y-120400000D02*
X80350000Y-120250000D01*
X83650000Y-120250000D02*
X83650000Y-117800000D01*
X83650000Y-117800000D02*
X83700000Y-117750000D01*
X100500000Y-86900000D02*
X100500000Y-87100000D01*
D26*
X81450000Y-85250000D02*
X81550000Y-85250000D01*
X81550000Y-85250000D02*
X82500000Y-86200000D01*
X94400000Y-83500000D02*
X95200000Y-82700000D01*
X90200000Y-83500000D02*
X94400000Y-83500000D01*
X89400000Y-84300000D02*
X90200000Y-83500000D01*
X85000000Y-84300000D02*
X89400000Y-84300000D01*
X84800000Y-84500000D02*
X85000000Y-84300000D01*
X84800000Y-86100000D02*
X84800000Y-84500000D01*
X84900000Y-86200000D02*
X84800000Y-86100000D01*
X82500000Y-86200000D02*
X84900000Y-86200000D01*
X96650000Y-77800000D02*
X95200000Y-77800000D01*
X100500000Y-85350000D02*
X100500000Y-84500000D01*
X96500000Y-84000000D02*
X95200000Y-82700000D01*
X100000000Y-84000000D02*
X96500000Y-84000000D01*
X100500000Y-84500000D02*
X100000000Y-84000000D01*
D27*
X102000000Y-121600000D02*
X102000000Y-114000000D01*
X102000000Y-114000000D02*
X108200000Y-107800000D01*
X108200000Y-107800000D02*
X108200000Y-104000000D01*
X106900000Y-100600000D02*
X104100000Y-97800000D01*
X104100000Y-97800000D02*
X104100000Y-94500000D01*
X104100000Y-94500000D02*
X104100000Y-94300000D01*
D26*
X100500000Y-87700000D02*
X100500000Y-86900000D01*
X96350000Y-88150000D02*
X96600000Y-87900000D01*
X96600000Y-87900000D02*
X100300000Y-87900000D01*
X100300000Y-87900000D02*
X100500000Y-87700000D01*
X100500000Y-85350000D02*
X100500000Y-86900000D01*
X96350000Y-88150000D02*
X96350000Y-89200000D01*
D27*
X104000000Y-122580000D02*
X103980000Y-122580000D01*
X103980000Y-122580000D02*
X103000000Y-121600000D01*
X103000000Y-121600000D02*
X102000000Y-121600000D01*
X106620000Y-125200000D02*
X109160000Y-125200000D01*
X109160000Y-125200000D02*
X111700000Y-127740000D01*
X104000000Y-122580000D02*
X106620000Y-125200000D01*
X102000000Y-121600000D02*
X102000000Y-123800000D01*
X102000000Y-123800000D02*
X103700000Y-125500000D01*
X103700000Y-125500000D02*
X103700000Y-128700000D01*
X103700000Y-128700000D02*
X103100000Y-129300000D01*
X85800000Y-127700000D02*
X85800000Y-127900000D01*
X85800000Y-127900000D02*
X87200000Y-129300000D01*
X87200000Y-129300000D02*
X103100000Y-129300000D01*
X80350000Y-127750000D02*
X82000000Y-127750000D01*
D26*
X71800000Y-86200000D02*
X71600000Y-86000000D01*
X71600000Y-86000000D02*
X71600000Y-85800000D01*
X73400000Y-78850000D02*
X73350000Y-78850000D01*
X73350000Y-78850000D02*
X72400000Y-79800000D01*
X72400000Y-79800000D02*
X72400000Y-83400000D01*
X72400000Y-83400000D02*
X71600000Y-84200000D01*
X71600000Y-84200000D02*
X71600000Y-85800000D01*
X71800000Y-86200000D02*
X72600000Y-86200000D01*
X72600000Y-89000000D02*
X72600000Y-86200000D01*
X74950000Y-85250000D02*
X79150000Y-85250000D01*
X74000000Y-86200000D02*
X74950000Y-85250000D01*
X72600000Y-86200000D02*
X74000000Y-86200000D01*
X79150000Y-85250000D02*
X81450000Y-85250000D01*
X73400000Y-78850000D02*
X73400000Y-76600000D01*
X73400000Y-76600000D02*
X73550000Y-76450000D01*
X78250000Y-124450000D02*
X79100000Y-125300000D01*
X79100000Y-127600000D02*
X78450000Y-128250000D01*
X79100000Y-125300000D02*
X79100000Y-127600000D01*
D27*
X78450000Y-128250000D02*
X79850000Y-128250000D01*
X79850000Y-128250000D02*
X80350000Y-127750000D01*
D26*
X78250000Y-124450000D02*
X78250000Y-124500000D01*
X78750000Y-127950000D02*
X78450000Y-128250000D01*
D27*
X88400000Y-91700000D02*
X88400000Y-85400000D01*
X90600000Y-79000000D02*
X94200000Y-79000000D01*
X88400000Y-81200000D02*
X90600000Y-79000000D01*
X105700000Y-104250000D02*
X105450000Y-104250000D01*
X105450000Y-104250000D02*
X104300000Y-103100000D01*
X94400000Y-95600000D02*
X94400000Y-94100000D01*
X93200000Y-96800000D02*
X94400000Y-95600000D01*
X100700000Y-96800000D02*
X96800000Y-96800000D01*
X104300000Y-100400000D02*
X100700000Y-96800000D01*
X104300000Y-103100000D02*
X104300000Y-100400000D01*
X95300000Y-74600000D02*
X94000000Y-75900000D01*
X94000000Y-75900000D02*
X94000000Y-78800000D01*
X94000000Y-78800000D02*
X94200000Y-79000000D01*
X97400000Y-74000000D02*
X98550000Y-75150000D01*
X95900000Y-74000000D02*
X95300000Y-74600000D01*
X97400000Y-74000000D02*
X95900000Y-74000000D01*
D26*
X100500000Y-79600000D02*
X99900000Y-79000000D01*
D27*
X94200000Y-79000000D02*
X95600000Y-79000000D01*
D26*
X99900000Y-79000000D02*
X95600000Y-79000000D01*
D27*
X98550000Y-75400000D02*
X98550000Y-75150000D01*
D26*
X100500000Y-80050000D02*
X100500000Y-79600000D01*
D27*
X94400000Y-94100000D02*
X91000000Y-94100000D01*
X88600000Y-91700000D02*
X88400000Y-91700000D01*
X91000000Y-94100000D02*
X88600000Y-91700000D01*
X76000000Y-86800000D02*
X75000000Y-87800000D01*
X75000000Y-87800000D02*
X75000000Y-91300000D01*
X75000000Y-91300000D02*
X77400000Y-93700000D01*
X77400000Y-93700000D02*
X83300000Y-93700000D01*
X83300000Y-93700000D02*
X85300000Y-91700000D01*
X85300000Y-91700000D02*
X88400000Y-91700000D01*
X91900000Y-119250000D02*
X91900000Y-119700000D01*
X91900000Y-119700000D02*
X90800000Y-120800000D01*
X90800000Y-120800000D02*
X93900000Y-120800000D01*
X83500000Y-122750000D02*
X84850000Y-121400000D01*
X97950000Y-113650000D02*
X97950000Y-105105000D01*
X84850000Y-121350000D02*
X85400000Y-120800000D01*
X84850000Y-121400000D02*
X84850000Y-121350000D01*
X97950000Y-116750000D02*
X97950000Y-113650000D01*
X93900000Y-120800000D02*
X97950000Y-116750000D01*
X100000000Y-121600000D02*
X100000000Y-112500000D01*
X105700000Y-106800000D02*
X105700000Y-104250000D01*
X100000000Y-112500000D02*
X105700000Y-106800000D01*
D26*
X90850000Y-86700000D02*
X91400000Y-86700000D01*
X93400000Y-94100000D02*
X94400000Y-94100000D01*
X91800000Y-92500000D02*
X93400000Y-94100000D01*
X91800000Y-87100000D02*
X91800000Y-92500000D01*
X91400000Y-86700000D02*
X91800000Y-87100000D01*
D27*
X98550000Y-75400000D02*
X102400000Y-75400000D01*
X102400000Y-75400000D02*
X102700000Y-75100000D01*
X102700000Y-75100000D02*
X102700000Y-74200000D01*
X102700000Y-74200000D02*
X102900000Y-74000000D01*
X102900000Y-74000000D02*
X104500000Y-74000000D01*
X104500000Y-74000000D02*
X105800000Y-75300000D01*
X97950000Y-102565000D02*
X99365000Y-102565000D01*
X99095000Y-105105000D02*
X97950000Y-105105000D01*
X99600000Y-104600000D02*
X99095000Y-105105000D01*
X99600000Y-102800000D02*
X99600000Y-104600000D01*
X99365000Y-102565000D02*
X99600000Y-102800000D01*
X100000000Y-121600000D02*
X100000000Y-126100000D01*
X100000000Y-126100000D02*
X99600000Y-126500000D01*
X100000000Y-121600000D02*
X99500000Y-121600000D01*
X99500000Y-121600000D02*
X97000000Y-124100000D01*
X97000000Y-124100000D02*
X97000000Y-127000000D01*
X97000000Y-127000000D02*
X95700000Y-128300000D01*
X83650000Y-127750000D02*
X85000000Y-126400000D01*
X85000000Y-126400000D02*
X86900000Y-126400000D01*
X86900000Y-126400000D02*
X87300000Y-126800000D01*
X87300000Y-126800000D02*
X87300000Y-128100000D01*
X87300000Y-128100000D02*
X87500000Y-128300000D01*
X87500000Y-128300000D02*
X95700000Y-128300000D01*
X83650000Y-127750000D02*
X83850000Y-127750000D01*
D26*
X77900000Y-90000000D02*
X76700000Y-90000000D01*
X76700000Y-90000000D02*
X76000000Y-89300000D01*
X76000000Y-89300000D02*
X76000000Y-86800000D01*
X77900000Y-90000000D02*
X78700000Y-90800000D01*
D27*
X83550000Y-122800000D02*
X83500000Y-122750000D01*
D26*
X76000000Y-84000000D02*
X76000000Y-82000000D01*
X77250000Y-81550000D02*
X79150000Y-81550000D01*
X76450000Y-81550000D02*
X77250000Y-81550000D01*
X76000000Y-82000000D02*
X76450000Y-81550000D01*
X72600000Y-85200000D02*
X72600000Y-84300000D01*
X72900000Y-84000000D02*
X76000000Y-84000000D01*
X72600000Y-84300000D02*
X72900000Y-84000000D01*
X78700000Y-91000000D02*
X78700000Y-90800000D01*
X78700000Y-91000000D02*
X78700000Y-91700000D01*
X81600000Y-92200000D02*
X82800000Y-91000000D01*
X79200000Y-92200000D02*
X81600000Y-92200000D01*
X78700000Y-91700000D02*
X79200000Y-92200000D01*
X79150000Y-81550000D02*
X79150000Y-81250000D01*
X79150000Y-81250000D02*
X80550000Y-79850000D01*
X80550000Y-79850000D02*
X80550000Y-78850000D01*
X80550000Y-78850000D02*
X80550000Y-76450000D01*
D27*
X83650000Y-127750000D02*
X83650000Y-125400000D01*
X83650000Y-125400000D02*
X83500000Y-125250000D01*
X83500000Y-122750000D02*
X83500000Y-125250000D01*
X73750000Y-128000000D02*
X74500000Y-128000000D01*
X81900000Y-129500000D02*
X83650000Y-127750000D01*
X76000000Y-129500000D02*
X81900000Y-129500000D01*
X74500000Y-128000000D02*
X76000000Y-129500000D01*
D26*
X82700000Y-78900000D02*
X82700000Y-78000000D01*
X83850000Y-75500000D02*
X84850000Y-76500000D01*
X82300000Y-75500000D02*
X83850000Y-75500000D01*
X82000000Y-75800000D02*
X82300000Y-75500000D01*
X82000000Y-77300000D02*
X82000000Y-75800000D01*
X82700000Y-78000000D02*
X82000000Y-77300000D01*
X86000000Y-78900000D02*
X85000000Y-78900000D01*
X82700000Y-80300000D02*
X81500000Y-81500000D01*
X83600000Y-80300000D02*
X82700000Y-80300000D01*
X85000000Y-78900000D02*
X83600000Y-80300000D01*
X79150000Y-83550000D02*
X79450000Y-83550000D01*
X79450000Y-83550000D02*
X81500000Y-81500000D01*
X97950000Y-101295000D02*
X98995000Y-101295000D01*
X100250000Y-101800000D02*
X101300000Y-102850000D01*
X99500000Y-101800000D02*
X100250000Y-101800000D01*
X98995000Y-101295000D02*
X99500000Y-101800000D01*
X97950000Y-103835000D02*
X96735000Y-103835000D01*
X97105000Y-101295000D02*
X97950000Y-101295000D01*
X96700000Y-101700000D02*
X97105000Y-101295000D01*
X96700000Y-103800000D02*
X96700000Y-101700000D01*
X96735000Y-103835000D02*
X96700000Y-103800000D01*
X86000000Y-85250000D02*
X86350000Y-85250000D01*
X86350000Y-85250000D02*
X87300000Y-86200000D01*
X87300000Y-86200000D02*
X87300000Y-88500000D01*
X87300000Y-88500000D02*
X86000000Y-89800000D01*
X76800000Y-91000000D02*
X76800000Y-91300000D01*
X76800000Y-91300000D02*
X78400000Y-92900000D01*
X78400000Y-92900000D02*
X82900000Y-92900000D01*
X82900000Y-92900000D02*
X86000000Y-89800000D01*
X77750000Y-89000000D02*
X79800000Y-89000000D01*
X80900000Y-90100000D02*
X80900000Y-91000000D01*
X79800000Y-89000000D02*
X80900000Y-90100000D01*
X77750000Y-89000000D02*
X77750000Y-88550000D01*
X77750000Y-88550000D02*
X79150000Y-87150000D01*
X81850000Y-89000000D02*
X81850000Y-87550000D01*
X81850000Y-87550000D02*
X81450000Y-87150000D01*
X83750000Y-87200000D02*
X81500000Y-87200000D01*
X81500000Y-87200000D02*
X81450000Y-87150000D01*
X82950000Y-76500000D02*
X83000000Y-76500000D01*
X83000000Y-76500000D02*
X84100000Y-77600000D01*
X84100000Y-77600000D02*
X86900000Y-77600000D01*
X86900000Y-77600000D02*
X87100000Y-77800000D01*
X87100000Y-77800000D02*
X87100000Y-80350000D01*
X87100000Y-80350000D02*
X86000000Y-81450000D01*
X86000000Y-81000000D02*
X86000000Y-81450000D01*
X83900000Y-74500000D02*
X81400000Y-74500000D01*
X76300000Y-77600000D02*
X75050000Y-78850000D01*
X76800000Y-77600000D02*
X76300000Y-77600000D01*
X77400000Y-77000000D02*
X76800000Y-77600000D01*
X77400000Y-75700000D02*
X77400000Y-77000000D01*
X77600000Y-75500000D02*
X77400000Y-75700000D01*
X80400000Y-75500000D02*
X77600000Y-75500000D01*
X81400000Y-74500000D02*
X80400000Y-75500000D01*
X73350000Y-81450000D02*
X74050000Y-81450000D01*
X75050000Y-80450000D02*
X75050000Y-78850000D01*
X74050000Y-81450000D02*
X75050000Y-80450000D01*
X71650000Y-76450000D02*
X71650000Y-76350000D01*
X71650000Y-76350000D02*
X72600000Y-75400000D01*
X75200000Y-75400000D02*
X76150000Y-76350000D01*
X72600000Y-75400000D02*
X75200000Y-75400000D01*
X71500000Y-78850000D02*
X71500000Y-76600000D01*
X71500000Y-76600000D02*
X71650000Y-76450000D01*
X71650000Y-91000000D02*
X71650000Y-87200000D01*
X71450000Y-81450000D02*
X70500000Y-82400000D01*
X70500000Y-89850000D02*
X71650000Y-91000000D01*
X70500000Y-82400000D02*
X70500000Y-89850000D01*
X71450000Y-81450000D02*
X71450000Y-80850000D01*
X71450000Y-80850000D02*
X70600000Y-80000000D01*
X70600000Y-80000000D02*
X70600000Y-75100000D01*
X70600000Y-75100000D02*
X71250000Y-74450000D01*
X71250000Y-74450000D02*
X72600000Y-74450000D01*
X78650000Y-78850000D02*
X78650000Y-76450000D01*
X76950000Y-78850000D02*
X78650000Y-78850000D01*
X76150000Y-74450000D02*
X79600000Y-74450000D01*
X100000000Y-99800000D02*
X99000000Y-98800000D01*
X101150000Y-100950000D02*
X100000000Y-99800000D01*
X94900000Y-98800000D02*
X94200000Y-98100000D01*
X99000000Y-98800000D02*
X94900000Y-98800000D01*
X82200000Y-98100000D02*
X80650000Y-98100000D01*
X73550000Y-91000000D02*
X76150000Y-93600000D01*
X80650000Y-98100000D02*
X76150000Y-93600000D01*
D27*
X94200000Y-98100000D02*
X94400000Y-98300000D01*
D26*
X101300000Y-100950000D02*
X101150000Y-100950000D01*
X73550000Y-87200000D02*
X73550000Y-87250000D01*
X73550000Y-87250000D02*
X73900000Y-87600000D01*
X73900000Y-87600000D02*
X73900000Y-90650000D01*
X73900000Y-90650000D02*
X73550000Y-91000000D01*
D27*
X105750000Y-77800000D02*
X105750000Y-80450000D01*
X103040000Y-80740000D02*
X103600000Y-81300000D01*
X103600000Y-81300000D02*
X104900000Y-81300000D01*
X104900000Y-81300000D02*
X105750000Y-80450000D01*
X103040000Y-80740000D02*
X103040000Y-80050000D01*
X102200000Y-81400000D02*
X100900000Y-81400000D01*
X103040000Y-80560000D02*
X102200000Y-81400000D01*
X97900000Y-82100000D02*
X97900000Y-80110000D01*
X98500000Y-82700000D02*
X97900000Y-82100000D01*
X99600000Y-82700000D02*
X98500000Y-82700000D01*
X100900000Y-81400000D02*
X99600000Y-82700000D01*
X97900000Y-80110000D02*
X97960000Y-80050000D01*
X103040000Y-80560000D02*
X103040000Y-80050000D01*
X105750000Y-77800000D02*
X105750000Y-77450000D01*
X105750000Y-77450000D02*
X103800000Y-75500000D01*
X103800000Y-75500000D02*
X103800000Y-75300000D01*
X103400000Y-83700000D02*
X102600000Y-83700000D01*
X104310000Y-85350000D02*
X104310000Y-84610000D01*
X103400000Y-83700000D02*
X104310000Y-84610000D01*
X99230000Y-81470000D02*
X99200000Y-81500000D01*
X99230000Y-81470000D02*
X99230000Y-80050000D01*
X102600000Y-83700000D02*
X102400000Y-83500000D01*
X107300000Y-88000000D02*
X107300000Y-87200000D01*
X105450000Y-85350000D02*
X107300000Y-87200000D01*
X107300000Y-89200000D02*
X107300000Y-88000000D01*
X105450000Y-85350000D02*
X104310000Y-85350000D01*
X107300000Y-91700000D02*
X107300000Y-89200000D01*
X105300000Y-89200000D02*
X103550000Y-89200000D01*
D26*
X86000000Y-83350000D02*
X83800000Y-83350000D01*
X83800000Y-83350000D02*
X83750000Y-83400000D01*
X83750000Y-85200000D02*
X83750000Y-83400000D01*
D27*
X100250000Y-77800000D02*
X100250000Y-78050000D01*
X100250000Y-78050000D02*
X101770000Y-79570000D01*
X101770000Y-79570000D02*
X101770000Y-80050000D01*
X98550000Y-77800000D02*
X98550000Y-77450000D01*
X98550000Y-77450000D02*
X96650000Y-75550000D01*
X96650000Y-75550000D02*
X96650000Y-75400000D01*
X98550000Y-77800000D02*
X100250000Y-77800000D01*
X100250000Y-77800000D02*
X100250000Y-78450000D01*
X104310000Y-80050000D02*
X104310000Y-78260000D01*
X104310000Y-78260000D02*
X103850000Y-77800000D01*
X102150000Y-77800000D02*
X103850000Y-77800000D01*
D26*
X83750000Y-81500000D02*
X83750000Y-82050000D01*
X93950000Y-80050000D02*
X96690000Y-80050000D01*
X91600000Y-82400000D02*
X93950000Y-80050000D01*
X84100000Y-82400000D02*
X91600000Y-82400000D01*
X83750000Y-82050000D02*
X84100000Y-82400000D01*
X81500000Y-83400000D02*
X81850000Y-83400000D01*
X81850000Y-83400000D02*
X83750000Y-81500000D01*
D27*
X101770000Y-85350000D02*
X101770000Y-84570000D01*
X113000000Y-106500000D02*
X111900000Y-106500000D01*
X113500000Y-106000000D02*
X113000000Y-106500000D01*
X113500000Y-102100000D02*
X113500000Y-106000000D01*
X112300000Y-100900000D02*
X113500000Y-102100000D01*
X109100000Y-100900000D02*
X112300000Y-100900000D01*
X106700000Y-98500000D02*
X109100000Y-100900000D01*
X106700000Y-95000000D02*
X106700000Y-98500000D01*
X107700000Y-94000000D02*
X106700000Y-95000000D01*
X108700000Y-93000000D02*
X107700000Y-94000000D01*
X108700000Y-86100000D02*
X108700000Y-93000000D01*
X104900000Y-82300000D02*
X108700000Y-86100000D01*
X101800000Y-82300000D02*
X104900000Y-82300000D01*
X101000000Y-83100000D02*
X101800000Y-82300000D01*
X101000000Y-83800000D02*
X101000000Y-83100000D01*
X101770000Y-84570000D02*
X101000000Y-83800000D01*
D26*
X95400000Y-90750000D02*
X95400000Y-87700000D01*
X96350000Y-91700000D02*
X95400000Y-90750000D01*
X99230000Y-86570000D02*
X99230000Y-85350000D01*
X98600000Y-87200000D02*
X99230000Y-86570000D01*
X95900000Y-87200000D02*
X98600000Y-87200000D01*
X95400000Y-87700000D02*
X95900000Y-87200000D01*
D27*
X96400000Y-94100000D02*
X96400000Y-91750000D01*
X96400000Y-91750000D02*
X96350000Y-91700000D01*
D26*
X90850000Y-91700000D02*
X90600000Y-91700000D01*
X90600000Y-91700000D02*
X89600000Y-90700000D01*
X101500000Y-93400000D02*
X101500000Y-93200000D01*
X101400000Y-93300000D02*
X101500000Y-93400000D01*
X101400000Y-93400000D02*
X101400000Y-93300000D01*
D27*
X94400000Y-85300000D02*
X92600000Y-85300000D01*
X90800000Y-89200000D02*
X90800000Y-88800000D01*
X90800000Y-88800000D02*
X89700000Y-87700000D01*
X89700000Y-87700000D02*
X89700000Y-85700000D01*
X89700000Y-85700000D02*
X90100000Y-85300000D01*
X90100000Y-85300000D02*
X92600000Y-85300000D01*
X94300000Y-85300000D02*
X94400000Y-85300000D01*
X94400000Y-85300000D02*
X96640000Y-85300000D01*
X92600000Y-85300000D02*
X93500000Y-85300000D01*
X96640000Y-85300000D02*
X96690000Y-85350000D01*
X90850000Y-91700000D02*
X90850000Y-89250000D01*
X90850000Y-89250000D02*
X90800000Y-89200000D01*
X99950000Y-94100000D02*
X100600000Y-94100000D01*
X101650000Y-93050000D02*
X101650000Y-91700000D01*
X100600000Y-94100000D02*
X101500000Y-93200000D01*
X101500000Y-93200000D02*
X101650000Y-93050000D01*
D26*
X97960000Y-85350000D02*
X97960000Y-85940000D01*
X97960000Y-85940000D02*
X97400000Y-86500000D01*
X97400000Y-86500000D02*
X92950000Y-86500000D01*
X92950000Y-86500000D02*
X92750000Y-86700000D01*
X97960000Y-85350000D02*
X97960000Y-85840000D01*
D27*
X92750000Y-86700000D02*
X92750000Y-89150000D01*
X92750000Y-89150000D02*
X92800000Y-89200000D01*
X92750000Y-91700000D02*
X92750000Y-89250000D01*
X92750000Y-89250000D02*
X92800000Y-89200000D01*
X96500000Y-98000000D02*
X96100000Y-98000000D01*
D26*
X95400000Y-93000000D02*
X94450000Y-92050000D01*
X95400000Y-93000000D02*
X95400000Y-97300000D01*
D27*
X95400000Y-97300000D02*
X96100000Y-98000000D01*
X101400000Y-98800000D02*
X100600000Y-98000000D01*
X100600000Y-98000000D02*
X96500000Y-98000000D01*
X96500000Y-98000000D02*
X96200000Y-98000000D01*
X103100000Y-107500000D02*
X103100000Y-100500000D01*
X103100000Y-100500000D02*
X103000000Y-100400000D01*
X103000000Y-100400000D02*
X101400000Y-98800000D01*
X99000000Y-111600000D02*
X103100000Y-107500000D01*
X99000000Y-119900000D02*
X99000000Y-111600000D01*
X98000000Y-120900000D02*
X99000000Y-119900000D01*
D26*
X94450000Y-91700000D02*
X94450000Y-92050000D01*
D27*
X94450000Y-91700000D02*
X94450000Y-89200000D01*
X98000000Y-91700000D02*
X98000000Y-94050000D01*
X98000000Y-94050000D02*
X98050000Y-94100000D01*
X98000000Y-89200000D02*
X98000000Y-91700000D01*
D26*
X100800000Y-95400000D02*
X101100000Y-95400000D01*
X99300000Y-95400000D02*
X100800000Y-95400000D01*
X99000000Y-95100000D02*
X99300000Y-95400000D01*
X99000000Y-93200000D02*
X99000000Y-95100000D01*
X100000000Y-92200000D02*
X99000000Y-93200000D01*
X103550000Y-92950000D02*
X103550000Y-91700000D01*
X101100000Y-95400000D02*
X103550000Y-92950000D01*
D27*
X103040000Y-86560000D02*
X103040000Y-87360000D01*
X103040000Y-85350000D02*
X103040000Y-86560000D01*
X103040000Y-87360000D02*
X101650000Y-88750000D01*
D26*
X100000000Y-91700000D02*
X100000000Y-92200000D01*
X103550000Y-92250000D02*
X103550000Y-91700000D01*
D27*
X100000000Y-89200000D02*
X101650000Y-89200000D01*
X103550000Y-91700000D02*
X103550000Y-91250000D01*
X103550000Y-91250000D02*
X101650000Y-89350000D01*
X101650000Y-89350000D02*
X101650000Y-89200000D01*
X101650000Y-89200000D02*
X101650000Y-88750000D01*
X103550000Y-91700000D02*
X105300000Y-91700000D01*
D26*
X77000000Y-125100000D02*
X77000000Y-125200000D01*
X77500000Y-127300000D02*
X76550000Y-128250000D01*
X78200000Y-127300000D02*
X77500000Y-127300000D01*
X78400000Y-127100000D02*
X78200000Y-127300000D01*
X78400000Y-125500000D02*
X78400000Y-127100000D01*
X78200000Y-125300000D02*
X78400000Y-125500000D01*
X77100000Y-125300000D02*
X78200000Y-125300000D01*
X77000000Y-125200000D02*
X77100000Y-125300000D01*
X74000000Y-122250000D02*
X74000000Y-123000000D01*
X77550000Y-122550000D02*
X76500000Y-121500000D01*
X76500000Y-121500000D02*
X74750000Y-121500000D01*
X74750000Y-121500000D02*
X74000000Y-122250000D01*
X78250000Y-122550000D02*
X77550000Y-122550000D01*
X77000000Y-124250000D02*
X77000000Y-125100000D01*
X77000000Y-125100000D02*
X77000000Y-125000000D01*
X76250000Y-123500000D02*
X77000000Y-124250000D01*
X74500000Y-123500000D02*
X76250000Y-123500000D01*
X74000000Y-123000000D02*
X74500000Y-123500000D01*
X76250000Y-128250000D02*
X76550000Y-128250000D01*
D27*
X78200000Y-120500000D02*
X78200000Y-122500000D01*
X78200000Y-122500000D02*
X78250000Y-122550000D01*
D26*
X75500000Y-124450000D02*
X72750000Y-124450000D01*
D27*
X70750000Y-128000000D02*
X70750000Y-126450000D01*
X70750000Y-126450000D02*
X72750000Y-124450000D01*
X70750000Y-128000000D02*
X70750000Y-127450000D01*
D26*
X72750000Y-122550000D02*
X70700000Y-124600000D01*
X72750000Y-126250000D02*
X77500000Y-126250000D01*
X72400000Y-126600000D02*
X72750000Y-126250000D01*
X72400000Y-128600000D02*
X72400000Y-126600000D01*
X71600000Y-129400000D02*
X72400000Y-128600000D01*
X69800000Y-129400000D02*
X71600000Y-129400000D01*
X69400000Y-129000000D02*
X69800000Y-129400000D01*
X69400000Y-125900000D02*
X69400000Y-129000000D01*
X70700000Y-124600000D02*
X69400000Y-125900000D01*
D27*
X72750000Y-122550000D02*
X72750000Y-122000000D01*
X74250000Y-120500000D02*
X76300000Y-120500000D01*
X72750000Y-122000000D02*
X74250000Y-120500000D01*
X111700000Y-122660000D02*
X108960000Y-122660000D01*
X108960000Y-122660000D02*
X107700000Y-121400000D01*
X107700000Y-121400000D02*
X107700000Y-112700000D01*
X107700000Y-112700000D02*
X111900000Y-108500000D01*
X105700000Y-102350000D02*
X109750000Y-102350000D01*
X109750000Y-102350000D02*
X111900000Y-104500000D01*
D28*
X87000000Y-110940000D02*
X90100000Y-110940000D01*
X90100000Y-110800000D02*
X91000000Y-109900000D01*
X91000000Y-109900000D02*
X91000000Y-107500000D01*
X91000000Y-107500000D02*
X91000000Y-106500000D01*
X90100000Y-110940000D02*
X90100000Y-110800000D01*
D27*
X87000000Y-110940000D02*
X87000000Y-111100000D01*
X87000000Y-111100000D02*
X91900000Y-116000000D01*
X91900000Y-116000000D02*
X91900000Y-117350000D01*
D26*
X95000000Y-102100000D02*
X95100000Y-102100000D01*
D28*
X90700000Y-97500000D02*
X90700000Y-100300000D01*
X90160000Y-95560000D02*
X90700000Y-96100000D01*
X90700000Y-96100000D02*
X90700000Y-97500000D01*
X87000000Y-95560000D02*
X90160000Y-95560000D01*
X90700000Y-100300000D02*
X90800000Y-100400000D01*
D27*
X82900000Y-112900000D02*
X82900000Y-113100000D01*
X82900000Y-113100000D02*
X83000000Y-113200000D01*
X83500000Y-113700000D02*
X83000000Y-113200000D01*
X83500000Y-113700000D02*
X85900000Y-116100000D01*
X85900000Y-116100000D02*
X85900000Y-118400000D01*
X84200000Y-98400000D02*
X82900000Y-99700000D01*
X82900000Y-99700000D02*
X82900000Y-112900000D01*
X85900000Y-118400000D02*
X86400000Y-118900000D01*
X86400000Y-118900000D02*
X88500000Y-118900000D01*
X88500000Y-118900000D02*
X89200000Y-119600000D01*
X89200000Y-119600000D02*
X89200000Y-121050000D01*
X89200000Y-121050000D02*
X87500000Y-122750000D01*
X87000000Y-95560000D02*
X87000000Y-95600000D01*
X87000000Y-95600000D02*
X84200000Y-98400000D01*
D29*
G36*
X95873000Y-102773000D02*
X94057250Y-102773000D01*
X93976250Y-102692000D01*
X92977000Y-102692000D01*
X92977000Y-102712000D01*
X92723000Y-102712000D01*
X92723000Y-102692000D01*
X91723750Y-102692000D01*
X91642750Y-102773000D01*
X90127000Y-102773000D01*
X90127000Y-101580750D01*
X91565000Y-101580750D01*
X91565000Y-101721309D01*
X91651443Y-101930000D01*
X91565000Y-102138691D01*
X91565000Y-102279250D01*
X91723750Y-102438000D01*
X92723000Y-102438000D01*
X92723000Y-101422000D01*
X92977000Y-101422000D01*
X92977000Y-102438000D01*
X93976250Y-102438000D01*
X94135000Y-102279250D01*
X94135000Y-102138691D01*
X94048557Y-101930000D01*
X94135000Y-101721309D01*
X94135000Y-101580750D01*
X93976250Y-101422000D01*
X92977000Y-101422000D01*
X92723000Y-101422000D01*
X91723750Y-101422000D01*
X91565000Y-101580750D01*
X90127000Y-101580750D01*
X90127000Y-100868691D01*
X91565000Y-100868691D01*
X91565000Y-101009250D01*
X91723750Y-101168000D01*
X92723000Y-101168000D01*
X92723000Y-100518750D01*
X92977000Y-100518750D01*
X92977000Y-101168000D01*
X93976250Y-101168000D01*
X94135000Y-101009250D01*
X94135000Y-100868691D01*
X94038327Y-100635302D01*
X93859699Y-100456673D01*
X93626310Y-100360000D01*
X93135750Y-100360000D01*
X92977000Y-100518750D01*
X92723000Y-100518750D01*
X92564250Y-100360000D01*
X92073690Y-100360000D01*
X91840301Y-100456673D01*
X91661673Y-100635302D01*
X91565000Y-100868691D01*
X90127000Y-100868691D01*
X90127000Y-100027000D01*
X95873000Y-100027000D01*
X95873000Y-102773000D01*
X95873000Y-102773000D01*
G37*
X95873000Y-102773000D02*
X94057250Y-102773000D01*
X93976250Y-102692000D01*
X92977000Y-102692000D01*
X92977000Y-102712000D01*
X92723000Y-102712000D01*
X92723000Y-102692000D01*
X91723750Y-102692000D01*
X91642750Y-102773000D01*
X90127000Y-102773000D01*
X90127000Y-101580750D01*
X91565000Y-101580750D01*
X91565000Y-101721309D01*
X91651443Y-101930000D01*
X91565000Y-102138691D01*
X91565000Y-102279250D01*
X91723750Y-102438000D01*
X92723000Y-102438000D01*
X92723000Y-101422000D01*
X92977000Y-101422000D01*
X92977000Y-102438000D01*
X93976250Y-102438000D01*
X94135000Y-102279250D01*
X94135000Y-102138691D01*
X94048557Y-101930000D01*
X94135000Y-101721309D01*
X94135000Y-101580750D01*
X93976250Y-101422000D01*
X92977000Y-101422000D01*
X92723000Y-101422000D01*
X91723750Y-101422000D01*
X91565000Y-101580750D01*
X90127000Y-101580750D01*
X90127000Y-100868691D01*
X91565000Y-100868691D01*
X91565000Y-101009250D01*
X91723750Y-101168000D01*
X92723000Y-101168000D01*
X92723000Y-100518750D01*
X92977000Y-100518750D01*
X92977000Y-101168000D01*
X93976250Y-101168000D01*
X94135000Y-101009250D01*
X94135000Y-100868691D01*
X94038327Y-100635302D01*
X93859699Y-100456673D01*
X93626310Y-100360000D01*
X93135750Y-100360000D01*
X92977000Y-100518750D01*
X92723000Y-100518750D01*
X92564250Y-100360000D01*
X92073690Y-100360000D01*
X91840301Y-100456673D01*
X91661673Y-100635302D01*
X91565000Y-100868691D01*
X90127000Y-100868691D01*
X90127000Y-100027000D01*
X95873000Y-100027000D01*
X95873000Y-102773000D01*
G36*
X91723750Y-103708000D02*
X92723000Y-103708000D01*
X92723000Y-103688000D01*
X92977000Y-103688000D01*
X92977000Y-103708000D01*
X93976250Y-103708000D01*
X94057250Y-103627000D01*
X95940000Y-103627000D01*
X95940000Y-103800000D01*
X95963659Y-103918938D01*
X95875791Y-107873000D01*
X90129854Y-107873000D01*
X90185014Y-105390750D01*
X91565000Y-105390750D01*
X91565000Y-105531309D01*
X91661673Y-105764698D01*
X91840301Y-105943327D01*
X92073690Y-106040000D01*
X92564250Y-106040000D01*
X92723000Y-105881250D01*
X92723000Y-105232000D01*
X92977000Y-105232000D01*
X92977000Y-105881250D01*
X93135750Y-106040000D01*
X93626310Y-106040000D01*
X93859699Y-105943327D01*
X94038327Y-105764698D01*
X94135000Y-105531309D01*
X94135000Y-105390750D01*
X93976250Y-105232000D01*
X92977000Y-105232000D01*
X92723000Y-105232000D01*
X91723750Y-105232000D01*
X91565000Y-105390750D01*
X90185014Y-105390750D01*
X90213236Y-104120750D01*
X91565000Y-104120750D01*
X91565000Y-104261309D01*
X91651443Y-104470000D01*
X91565000Y-104678691D01*
X91565000Y-104819250D01*
X91723750Y-104978000D01*
X92723000Y-104978000D01*
X92723000Y-103962000D01*
X92977000Y-103962000D01*
X92977000Y-104978000D01*
X93976250Y-104978000D01*
X94135000Y-104819250D01*
X94135000Y-104678691D01*
X94048557Y-104470000D01*
X94135000Y-104261309D01*
X94135000Y-104120750D01*
X93976250Y-103962000D01*
X92977000Y-103962000D01*
X92723000Y-103962000D01*
X91723750Y-103962000D01*
X91565000Y-104120750D01*
X90213236Y-104120750D01*
X90224209Y-103627000D01*
X91642750Y-103627000D01*
X91723750Y-103708000D01*
X91723750Y-103708000D01*
G37*
X91723750Y-103708000D02*
X92723000Y-103708000D01*
X92723000Y-103688000D01*
X92977000Y-103688000D01*
X92977000Y-103708000D01*
X93976250Y-103708000D01*
X94057250Y-103627000D01*
X95940000Y-103627000D01*
X95940000Y-103800000D01*
X95963659Y-103918938D01*
X95875791Y-107873000D01*
X90129854Y-107873000D01*
X90185014Y-105390750D01*
X91565000Y-105390750D01*
X91565000Y-105531309D01*
X91661673Y-105764698D01*
X91840301Y-105943327D01*
X92073690Y-106040000D01*
X92564250Y-106040000D01*
X92723000Y-105881250D01*
X92723000Y-105232000D01*
X92977000Y-105232000D01*
X92977000Y-105881250D01*
X93135750Y-106040000D01*
X93626310Y-106040000D01*
X93859699Y-105943327D01*
X94038327Y-105764698D01*
X94135000Y-105531309D01*
X94135000Y-105390750D01*
X93976250Y-105232000D01*
X92977000Y-105232000D01*
X92723000Y-105232000D01*
X91723750Y-105232000D01*
X91565000Y-105390750D01*
X90185014Y-105390750D01*
X90213236Y-104120750D01*
X91565000Y-104120750D01*
X91565000Y-104261309D01*
X91651443Y-104470000D01*
X91565000Y-104678691D01*
X91565000Y-104819250D01*
X91723750Y-104978000D01*
X92723000Y-104978000D01*
X92723000Y-103962000D01*
X92977000Y-103962000D01*
X92977000Y-104978000D01*
X93976250Y-104978000D01*
X94135000Y-104819250D01*
X94135000Y-104678691D01*
X94048557Y-104470000D01*
X94135000Y-104261309D01*
X94135000Y-104120750D01*
X93976250Y-103962000D01*
X92977000Y-103962000D01*
X92723000Y-103962000D01*
X91723750Y-103962000D01*
X91565000Y-104120750D01*
X90213236Y-104120750D01*
X90224209Y-103627000D01*
X91642750Y-103627000D01*
X91723750Y-103708000D01*
M02*
