M48
;DRILL file {KiCad 4.0.7} date Monday, January 25, 2021 'AMt' 11:59:41 AM
;FORMAT={-:-/ absolute / inch / decimal}
FMAT,2
INCH,TZ
T1C0.016
T2C0.031
T3C0.039
T4C0.047
%
G90
G05
M72
T1
X2.9921Y-3.3071
X2.9921Y-3.4173
X3.1811Y-4.6339
X3.2283Y-5.0295
X3.2362Y-3.8622
X3.3346Y-3.5118
X3.3622Y-4.7559
X3.378Y-5.0276
X3.4803Y-3.1969
X3.4803Y-3.3622
X3.5276Y-3.5709
X3.5276Y-4.6299
X3.5748Y-4.7559
X3.6614Y-4.2126
X3.6693Y-3.811
X3.7087Y-3.8622
X3.7402Y-4.1732
X3.7441Y-3.9685
X3.7441Y-4.0197
X3.748Y-3.063
X3.748Y-3.2559
X3.811Y-3.811
X3.8583Y-4.7598
X3.9055Y-3.2087
X3.9567Y-3.4291
X3.9921Y-3.6772
X4.0315Y-3.2874
X4.0984Y-3.7205
X4.2087Y-3.9606
X4.2598Y-4.0945
T2
X3.6496Y-4.9803
X3.7283Y-4.9803
X3.9213Y-4.9803
X4.Y-4.9803
X4.4055Y-4.1142
X4.4055Y-4.1929
X4.4055Y-4.2717
T3
X4.1976Y-4.9291
X4.3976Y-4.8291
X4.3976Y-5.0291
T4
X3.4252Y-3.7622
X3.4252Y-3.9622
X3.4252Y-4.1677
X3.4252Y-4.3677
T0
M30
