G04 #@! TF.FileFunction,Copper,L2,Bot,Signal*
%FSLAX46Y46*%
G04 Gerber Fmt 4.6, Leading zero omitted, Abs format (unit mm)*
G04 Created by KiCad (PCBNEW 4.0.7) date Monday, January 25, 2021 'AMt' 11:59:33 AM*
%MOMM*%
%LPD*%
G01*
G04 APERTURE LIST*
%ADD10C,0.100000*%
%ADD11R,2.000000X1.500000*%
%ADD12R,1.500000X2.000000*%
%ADD13R,4.000000X3.500000*%
%ADD14C,2.500000*%
%ADD15C,1.200000*%
%ADD16C,0.250000*%
%ADD17C,0.500000*%
%ADD18C,0.254000*%
G04 APERTURE END LIST*
D10*
D11*
X111900000Y-108500000D03*
X111900000Y-106500000D03*
X111900000Y-104500000D03*
D12*
X92700000Y-126500000D03*
X94700000Y-126500000D03*
X99600000Y-126500000D03*
X101600000Y-126500000D03*
D13*
X87000000Y-100640000D03*
X87000000Y-95560000D03*
X87000000Y-110940000D03*
X87000000Y-105860000D03*
D14*
X111700000Y-122660000D03*
X111700000Y-127740000D03*
X106620000Y-125200000D03*
D15*
X84700000Y-89200000D03*
X80800000Y-117700000D03*
X89600000Y-117600000D03*
X104100000Y-94500000D03*
X100500000Y-87100000D03*
X95200000Y-82700000D03*
X95200000Y-77800000D03*
X108200000Y-104000000D03*
X106900000Y-100600000D03*
X85800000Y-127700000D03*
X82000000Y-127750000D03*
X88400000Y-81200000D03*
X88400000Y-85400000D03*
X93200000Y-96800000D03*
X96800000Y-96800000D03*
X90800000Y-120800000D03*
X85400000Y-120800000D03*
X76000000Y-84000000D03*
X76000000Y-86800000D03*
X94200000Y-98100000D03*
X82200000Y-98100000D03*
X102400000Y-83500000D03*
X99200000Y-81500000D03*
X101400000Y-93400000D03*
X89600000Y-90700000D03*
X98000000Y-120900000D03*
X95000000Y-106000000D03*
X93000000Y-107000000D03*
X95100000Y-100800000D03*
X95100000Y-102100000D03*
D16*
X81540000Y-100640000D02*
X81000000Y-100100000D01*
X81000000Y-100100000D02*
X81000000Y-92900000D01*
X81000000Y-92900000D02*
X84700000Y-89200000D01*
X87000000Y-100640000D02*
X81540000Y-100640000D01*
D17*
X80900000Y-117600000D02*
X89600000Y-117600000D01*
X80800000Y-117700000D02*
X80900000Y-117600000D01*
X89600000Y-117600000D02*
X89550000Y-117550000D01*
X103100000Y-87100000D02*
X100500000Y-87100000D01*
X104100000Y-88100000D02*
X103100000Y-87100000D01*
X104100000Y-88100000D02*
X104100000Y-94500000D01*
D16*
X95200000Y-77800000D02*
X95200000Y-82700000D01*
D17*
X108200000Y-104000000D02*
X106900000Y-102700000D01*
X106900000Y-102700000D02*
X106900000Y-100600000D01*
X82000000Y-127750000D02*
X85750000Y-127750000D01*
X85750000Y-127750000D02*
X85800000Y-127700000D01*
X88400000Y-85400000D02*
X88400000Y-81200000D01*
X96800000Y-96800000D02*
X93200000Y-96800000D01*
X85400000Y-120800000D02*
X90800000Y-120800000D01*
D16*
X76000000Y-84000000D02*
X76000000Y-86800000D01*
D17*
X93600000Y-98100000D02*
X94200000Y-98100000D01*
X93600000Y-98100000D02*
X82200000Y-98100000D01*
X99200000Y-81500000D02*
X102400000Y-83500000D01*
D16*
X92300000Y-93400000D02*
X101400000Y-93400000D01*
X89600000Y-90700000D02*
X92300000Y-93400000D01*
D17*
X101600000Y-126500000D02*
X101600000Y-124500000D01*
X101600000Y-124500000D02*
X98000000Y-120900000D01*
D18*
G36*
X104373000Y-110373000D02*
X98627000Y-110373000D01*
X98627000Y-103000000D01*
X98616994Y-102950590D01*
X98588553Y-102908965D01*
X98546159Y-102881685D01*
X98500000Y-102873000D01*
X90127000Y-102873000D01*
X90127000Y-100127000D01*
X104373000Y-100127000D01*
X104373000Y-110373000D01*
X104373000Y-110373000D01*
G37*
X104373000Y-110373000D02*
X98627000Y-110373000D01*
X98627000Y-103000000D01*
X98616994Y-102950590D01*
X98588553Y-102908965D01*
X98546159Y-102881685D01*
X98500000Y-102873000D01*
X90127000Y-102873000D01*
X90127000Y-100127000D01*
X104373000Y-100127000D01*
X104373000Y-110373000D01*
G36*
X96873000Y-112000000D02*
X96883006Y-112049410D01*
X96911447Y-112091035D01*
X96953841Y-112118315D01*
X97000000Y-112127000D01*
X99873000Y-112127000D01*
X99873000Y-114873000D01*
X90127000Y-114873000D01*
X90127000Y-104127000D01*
X96873000Y-104127000D01*
X96873000Y-112000000D01*
X96873000Y-112000000D01*
G37*
X96873000Y-112000000D02*
X96883006Y-112049410D01*
X96911447Y-112091035D01*
X96953841Y-112118315D01*
X97000000Y-112127000D01*
X99873000Y-112127000D01*
X99873000Y-114873000D01*
X90127000Y-114873000D01*
X90127000Y-104127000D01*
X96873000Y-104127000D01*
X96873000Y-112000000D01*
M02*
